{
    "asset" : {
        "generator" : "Khronos glTF Blender I/O v1.1.46",
        "version" : "2.0"
    },
    "scene" : 0,
    "scenes" : [
        {
            "name" : "Scene",
            "nodes" : [
                0,
                1,
                24
            ]
        }
    ],
    "nodes" : [
        {
            "name" : "Light",
            "rotation" : [
                0.16907575726509094,
                0.7558803558349609,
                -0.27217137813568115,
                0.570947527885437
            ],
            "translation" : [
                4.076245307922363,
                5.903861999511719,
                -1.0054539442062378
            ]
        },
        {
            "name" : "Camera",
            "rotation" : [
                0.7071067690849304,
                0,
                0,
                0.7071067690849304
            ],
            "translation" : [
                -1.7880480289459229,
                0.5399999618530273,
                3.5357909202575684
            ]
        },
        {
            "name" : "eye1R",
            "rotation" : [
                -0.730633556842804,
                -0.45775505900382996,
                -0.42806994915008545,
                0.2709077000617981
            ],
            "scale" : [
                0.9999999403953552,
                0.9999998211860657,
                0.9999999403953552
            ],
            "translation" : [
                -0.6791690587997437,
                1.5057839155197144,
                0.2546365261077881
            ]
        },
        {
            "name" : "eye2R",
            "rotation" : [
                -0.7306336760520935,
                -0.4577547609806061,
                -0.4280702769756317,
                0.2709074318408966
            ],
            "scale" : [
                0.9999997615814209,
                0.9999995231628418,
                0.9999999403953552
            ],
            "translation" : [
                -0.6767104864120483,
                1.618034839630127,
                0.4431265592575073
            ]
        },
        {
            "name" : "eye3R",
            "rotation" : [
                -0.730633556842804,
                -0.4577551484107971,
                -0.4280700981616974,
                0.27090752124786377
            ],
            "scale" : [
                0.9999998807907104,
                0.9999997615814209,
                0.9999999403953552
            ],
            "translation" : [
                -0.6702288389205933,
                1.5244402885437012,
                0.612078070640564
            ]
        },
        {
            "name" : "eyelid1R",
            "rotation" : [
                -0.7306337356567383,
                -0.45775479078292847,
                -0.42807021737098694,
                0.27090731263160706
            ],
            "scale" : [
                1,
                1.0000001192092896,
                1
            ],
            "translation" : [
                -0.666950523853302,
                1.5312809944152832,
                0.20356035232543945
            ]
        },
        {
            "name" : "eyelid2R",
            "rotation" : [
                -0.7306336164474487,
                -0.45775505900382996,
                -0.42807018756866455,
                0.27090728282928467
            ],
            "scale" : [
                0.9999998807907104,
                0.9999996423721313,
                0.9999999403953552
            ],
            "translation" : [
                -0.7021610140800476,
                1.7020403146743774,
                0.4396785497665405
            ]
        },
        {
            "name" : "eyelid3R",
            "rotation" : [
                -0.7306332588195801,
                -0.4577557444572449,
                -0.4280700385570526,
                0.27090755105018616
            ],
            "scale" : [
                0.9999999403953552,
                0.9999998211860657,
                0.9999999403953552
            ],
            "translation" : [
                -0.5736409425735474,
                1.4966593980789185,
                0.6843938827514648
            ]
        },
        {
            "name" : "eye4R",
            "rotation" : [
                -0.7306337952613831,
                -0.45775485038757324,
                -0.4280703365802765,
                0.2709071934223175
            ],
            "translation" : [
                -0.7159240245819092,
                1.429085612297058,
                0.44542524218559265
            ]
        },
        {
            "name" : "nouthtop",
            "rotation" : [
                -0.7306337356567383,
                -0.45775508880615234,
                -0.4280700385570526,
                0.27090731263160706
            ],
            "translation" : [
                -1.3349671363830566,
                0.9170515537261963,
                -0.006439058110117912
            ]
        },
        {
            "name" : "eye1L",
            "rotation" : [
                -0.7295650839805603,
                -0.45945602655410767,
                -0.42988917231559753,
                0.2680117189884186
            ],
            "scale" : [
                0.9999997615814209,
                0.9999997019767761,
                0.9999998807907104
            ],
            "translation" : [
                -0.6786587238311768,
                1.5068488121032715,
                -0.28173017501831055
            ]
        },
        {
            "name" : "eye2L",
            "rotation" : [
                -0.7295653223991394,
                -0.45945578813552856,
                -0.429888516664505,
                0.2680124342441559
            ],
            "scale" : [
                0.9999997615814209,
                0.9999996423721313,
                0.9999998807907104
            ],
            "translation" : [
                -0.6762000918388367,
                1.6190996170043945,
                -0.47022008895874023
            ]
        },
        {
            "name" : "eye3L",
            "rotation" : [
                -0.729565441608429,
                -0.45945560932159424,
                -0.42988869547843933,
                0.268012136220932
            ],
            "scale" : [
                0.9999998211860657,
                0.9999997615814209,
                0.9999998807907104
            ],
            "translation" : [
                -0.6697182655334473,
                1.5255053043365479,
                -0.6391716599464417
            ]
        },
        {
            "name" : "eyelid1L",
            "rotation" : [
                -0.729565441608429,
                -0.4594557583332062,
                -0.42988866567611694,
                0.26801222562789917
            ],
            "scale" : [
                1,
                1,
                0.9999999403953552
            ],
            "translation" : [
                -0.6664402484893799,
                1.5323457717895508,
                -0.2306537628173828
            ]
        },
        {
            "name" : "eyelid2L",
            "rotation" : [
                -0.7295653223991394,
                -0.4594559967517853,
                -0.4298885762691498,
                0.26801231503486633
            ],
            "scale" : [
                1,
                1,
                0.9999999403953552
            ],
            "translation" : [
                -0.7016503810882568,
                1.7031052112579346,
                -0.46677207946777344
            ]
        },
        {
            "name" : "eyelid3L",
            "rotation" : [
                -0.7295650243759155,
                -0.45945632457733154,
                -0.429889053106308,
                0.26801154017448425
            ],
            "scale" : [
                0.9999998807907104,
                0.9999997615814209,
                0.9999999403953552
            ],
            "translation" : [
                -0.5731303095817566,
                1.4977245330810547,
                -0.7114875912666321
            ]
        },
        {
            "name" : "eye4L",
            "rotation" : [
                -0.7295651435852051,
                -0.4594561755657196,
                -0.42988860607147217,
                0.2680123746395111
            ],
            "scale" : [
                1,
                0.9999999403953552,
                1
            ],
            "translation" : [
                -0.7154136300086975,
                1.4301502704620361,
                -0.4725187122821808
            ]
        },
        {
            "children" : [
                2,
                3,
                4,
                5,
                6,
                7,
                8,
                9,
                10,
                11,
                12,
                13,
                14,
                15,
                16
            ],
            "name" : "head",
            "rotation" : [
                -2.6374531003625634e-08,
                3.6626818911145165e-08,
                0.062083031982183456,
                0.998071014881134
            ],
            "translation" : [
                0,
                1.122218132019043,
                0
            ]
        },
        {
            "name" : "mouthR",
            "rotation" : [
                0.8486571907997131,
                -0.15213941037654877,
                0.4990426301956177,
                0.08712697774171829
            ],
            "scale" : [
                1.000000238418579,
                1.0000001192092896,
                1
            ],
            "translation" : [
                0.5391253232955933,
                1.2054240703582764,
                0.38822734355926514
            ]
        },
        {
            "name" : "mouthbottom",
            "rotation" : [
                0.848656952381134,
                -0.1521393060684204,
                0.49904289841651917,
                0.08712726831436157
            ],
            "scale" : [
                0.9999996423721313,
                0.9999999403953552,
                1
            ],
            "translation" : [
                0.5661379098892212,
                1.4127305746078491,
                0.005000710487365723
            ]
        },
        {
            "name" : "mouthL",
            "rotation" : [
                0.84900963306427,
                -0.1501619517803192,
                0.49844273924827576,
                0.09049266576766968
            ],
            "scale" : [
                1.0000014305114746,
                1.0000001192092896,
                1.0000001192092896
            ],
            "translation" : [
                0.5402344465255737,
                1.2050187587738037,
                -0.41532087326049805
            ]
        },
        {
            "children" : [
                18,
                19,
                20
            ],
            "name" : "jaw",
            "rotation" : [
                0,
                0,
                0.7167980670928955,
                0.6972808837890625
            ],
            "translation" : [
                0,
                1.122218132019043,
                0
            ]
        },
        {
            "children" : [
                17,
                21
            ],
            "name" : "Bone",
            "rotation" : [
                -0.4131990373134613,
                0.5738175511360168,
                0.5738175511360168,
                0.4131990373134613
            ],
            "translation" : [
                2.16770601272583,
                0.5467325448989868,
                -1.4890044927597046
            ]
        },
        {
            "mesh" : 0,
            "name" : "Sam",
            "skin" : 0
        },
        {
            "children" : [
                23,
                22
            ],
            "name" : "Armature",
            "rotation" : [
                0,
                0,
                -0.7071067690849304,
                0.7071067690849304
            ],
            "scale" : [
                0.27309101819992065,
                0.27309101819992065,
                0.27309101819992065
            ],
            "translation" : [
                -0.14526978135108948,
                0.7543455362319946,
                0.21375028789043427
            ]
        }
    ],
    "animations" : [
        {
            "channels" : [
                {
                    "sampler" : 0,
                    "target" : {
                        "node" : 23,
                        "path" : "translation"
                    }
                },
                {
                    "sampler" : 1,
                    "target" : {
                        "node" : 23,
                        "path" : "rotation"
                    }
                },
                {
                    "sampler" : 2,
                    "target" : {
                        "node" : 23,
                        "path" : "scale"
                    }
                }
            ],
            "name" : "SamAction",
            "samplers" : [
                {
                    "input" : 7,
                    "interpolation" : "STEP",
                    "output" : 8
                },
                {
                    "input" : 7,
                    "interpolation" : "STEP",
                    "output" : 9
                },
                {
                    "input" : 7,
                    "interpolation" : "STEP",
                    "output" : 10
                }
            ]
        }
    ],
    "meshes" : [
        {
            "name" : "Sam",
            "primitives" : [
                {
                    "attributes" : {
                        "POSITION" : 0,
                        "NORMAL" : 1,
                        "COLOR_0" : 2,
                        "JOINTS_0" : 3,
                        "WEIGHTS_0" : 4
                    },
                    "indices" : 5
                }
            ]
        }
    ],
    "skins" : [
        {
            "inverseBindMatrices" : 6,
            "joints" : [
                22,
                17,
                2,
                3,
                4,
                5,
                6,
                7,
                8,
                9,
                10,
                11,
                12,
                13,
                14,
                15,
                16,
                21,
                18,
                19,
                20
            ],
            "name" : "Armature"
        }
    ],
    "accessors" : [
        {
            "bufferView" : 0,
            "componentType" : 5126,
            "count" : 10444,
            "max" : [
                0.4107630252838135,
                1.1865859031677246,
                0.3966170847415924
            ],
            "min" : [
                -0.41043296456336975,
                0.02543986588716507,
                -0.4549419581890106
            ],
            "type" : "VEC3"
        },
        {
            "bufferView" : 1,
            "componentType" : 5126,
            "count" : 10444,
            "type" : "VEC3"
        },
        {
            "bufferView" : 2,
            "componentType" : 5126,
            "count" : 10444,
            "type" : "VEC4"
        },
        {
            "bufferView" : 3,
            "componentType" : 5123,
            "count" : 10444,
            "type" : "VEC4"
        },
        {
            "bufferView" : 4,
            "componentType" : 5126,
            "count" : 10444,
            "type" : "VEC4"
        },
        {
            "bufferView" : 5,
            "componentType" : 5123,
            "count" : 15666,
            "type" : "SCALAR"
        },
        {
            "bufferView" : 6,
            "componentType" : 5126,
            "count" : 21,
            "type" : "MAT4"
        },
        {
            "bufferView" : 7,
            "componentType" : 5126,
            "count" : 1,
            "max" : [
                0.041666666666666664
            ],
            "min" : [
                0.041666666666666664
            ],
            "type" : "SCALAR"
        },
        {
            "bufferView" : 8,
            "componentType" : 5126,
            "count" : 1,
            "type" : "VEC3"
        },
        {
            "bufferView" : 9,
            "componentType" : 5126,
            "count" : 1,
            "type" : "VEC4"
        },
        {
            "bufferView" : 10,
            "componentType" : 5126,
            "count" : 1,
            "type" : "VEC3"
        }
    ],
    "bufferViews" : [
        {
            "buffer" : 0,
            "byteLength" : 125328,
            "byteOffset" : 0
        },
        {
            "buffer" : 0,
            "byteLength" : 125328,
            "byteOffset" : 125328
        },
        {
            "buffer" : 0,
            "byteLength" : 167104,
            "byteOffset" : 250656
        },
        {
            "buffer" : 0,
            "byteLength" : 83552,
            "byteOffset" : 417760
        },
        {
            "buffer" : 0,
            "byteLength" : 167104,
            "byteOffset" : 501312
        },
        {
            "buffer" : 0,
            "byteLength" : 31332,
            "byteOffset" : 668416
        },
        {
            "buffer" : 0,
            "byteLength" : 1344,
            "byteOffset" : 699748
        },
        {
            "buffer" : 0,
            "byteLength" : 4,
            "byteOffset" : 701092
        },
        {
            "buffer" : 0,
            "byteLength" : 12,
            "byteOffset" : 701096
        },
        {
            "buffer" : 0,
            "byteLength" : 16,
            "byteOffset" : 701108
        },
        {
            "buffer" : 0,
            "byteLength" : 12,
            "byteOffset" : 701124
        }
    ],
    "buffers" : [
        {
            "byteLength" : 701136,
            "uri" : "data:application/octet-stream;base64,"
        }
    ]
}
